M48
; DRILL file {KiCad 8.0.3} date 2026-06-04T01:45:36-0500
; FORMAT={-:-/ absolute / inch / decimal}
; #@! TF.CreationDate,2026-06-04T01:45:36-05:00
; #@! TF.GenerationSoftware,Kicad,Pcbnew,8.0.3
; #@! TF.FileFunction,Plated,1,2,PTH
FMAT,2
INCH
; #@! TA.AperFunction,Plated,PTH,ComponentDrill
T1C0.0394
%
G90
G05
T1
X4.5169Y-4.6
X4.5169Y-4.7
X4.5169Y-4.8
X4.5169Y-4.9
X4.5169Y-5.0
X4.5169Y-5.1
X4.5169Y-5.2
X4.5169Y-5.3
X4.5169Y-5.4
X4.5169Y-5.5
X4.5169Y-5.6
X4.5169Y-5.7
X4.5169Y-5.8
X4.5169Y-5.9
X4.5169Y-6.0
X4.5169Y-6.1
X4.5169Y-6.2
X4.5169Y-6.3
X4.5169Y-6.4
X5.3831Y-4.6014
X5.3831Y-4.7014
X5.3831Y-4.8014
X5.3831Y-4.9014
X5.3831Y-5.0014
X5.3831Y-5.1014
X5.3831Y-5.2014
X5.3831Y-5.3014
X5.3831Y-5.4014
X5.3831Y-5.5014
X5.3831Y-5.6014
X5.3831Y-5.7014
X5.3831Y-5.8014
X5.3831Y-5.9014
X5.3831Y-6.0014
X5.3831Y-6.1014
X5.3831Y-6.2014
X5.3831Y-6.3014
X5.3831Y-6.4014
X5.7Y-4.9
X5.7Y-5.0
X5.7Y-5.1
X5.7Y-5.2
M30
