%TF.GenerationSoftware,KiCad,Pcbnew,8.0.3*%
%TF.CreationDate,2026-06-04T01:45:20-05:00*%
%TF.ProjectId,ASTBEHVV,41535442-4548-4565-962e-6b696361645f,rev?*%
%TF.SameCoordinates,Original*%
%TF.FileFunction,Soldermask,Bot*%
%TF.FilePolarity,Negative*%
%FSLAX46Y46*%
G04 Gerber Fmt 4.6, Leading zero omitted, Abs format (unit mm)*
G04 Created by KiCad (PCBNEW 8.0.3) date 2026-06-04 01:45:20*
%MOMM*%
%LPD*%
G01*
G04 APERTURE LIST*
%ADD10R,1.700000X1.700000*%
%ADD11O,1.700000X1.700000*%
G04 APERTURE END LIST*
D10*
%TO.C,J3*%
X144780000Y-124460000D03*
D11*
X144780000Y-127000000D03*
X144780000Y-129540000D03*
X144780000Y-132080000D03*
%TD*%
D10*
%TO.C,J2*%
X136730000Y-116875000D03*
D11*
X136730000Y-119415000D03*
X136730000Y-121955000D03*
X136730000Y-124495000D03*
X136730000Y-127035000D03*
X136730000Y-129575000D03*
X136730000Y-132115000D03*
X136730000Y-134655000D03*
X136730000Y-137195000D03*
X136730000Y-139735000D03*
X136730000Y-142275000D03*
X136730000Y-144815000D03*
X136730000Y-147355000D03*
X136730000Y-149895000D03*
X136730000Y-152435000D03*
X136730000Y-154975000D03*
X136730000Y-157515000D03*
X136730000Y-160055000D03*
X136730000Y-162595000D03*
%TD*%
D10*
%TO.C,J1*%
X114730000Y-116840000D03*
D11*
X114730000Y-119380000D03*
X114730000Y-121920000D03*
X114730000Y-124460000D03*
X114730000Y-127000000D03*
X114730000Y-129540000D03*
X114730000Y-132080000D03*
X114730000Y-134620000D03*
X114730000Y-137160000D03*
X114730000Y-139700000D03*
X114730000Y-142240000D03*
X114730000Y-144780000D03*
X114730000Y-147320000D03*
X114730000Y-149860000D03*
X114730000Y-152400000D03*
X114730000Y-154940000D03*
X114730000Y-157480000D03*
X114730000Y-160020000D03*
X114730000Y-162560000D03*
%TD*%
M02*
