%TF.GenerationSoftware,KiCad,Pcbnew,8.0.3*%
%TF.CreationDate,2026-06-04T01:45:20-05:00*%
%TF.ProjectId,ASTBEHVV,41535442-4548-4565-962e-6b696361645f,rev?*%
%TF.SameCoordinates,Original*%
%TF.FileFunction,Legend,Top*%
%TF.FilePolarity,Positive*%
%FSLAX46Y46*%
G04 Gerber Fmt 4.6, Leading zero omitted, Abs format (unit mm)*
G04 Created by KiCad (PCBNEW 8.0.3) date 2026-06-04 01:45:20*
%MOMM*%
%LPD*%
G01*
G04 APERTURE LIST*
%ADD10C,0.150000*%
%ADD11C,0.120000*%
G04 APERTURE END LIST*
D10*
X139941541Y-130949819D02*
X140560588Y-130949819D01*
X140560588Y-130949819D02*
X140227255Y-131330771D01*
X140227255Y-131330771D02*
X140370112Y-131330771D01*
X140370112Y-131330771D02*
X140465350Y-131378390D01*
X140465350Y-131378390D02*
X140512969Y-131426009D01*
X140512969Y-131426009D02*
X140560588Y-131521247D01*
X140560588Y-131521247D02*
X140560588Y-131759342D01*
X140560588Y-131759342D02*
X140512969Y-131854580D01*
X140512969Y-131854580D02*
X140465350Y-131902200D01*
X140465350Y-131902200D02*
X140370112Y-131949819D01*
X140370112Y-131949819D02*
X140084398Y-131949819D01*
X140084398Y-131949819D02*
X139989160Y-131902200D01*
X139989160Y-131902200D02*
X139941541Y-131854580D01*
X140989160Y-131854580D02*
X141036779Y-131902200D01*
X141036779Y-131902200D02*
X140989160Y-131949819D01*
X140989160Y-131949819D02*
X140941541Y-131902200D01*
X140941541Y-131902200D02*
X140989160Y-131854580D01*
X140989160Y-131854580D02*
X140989160Y-131949819D01*
X141370112Y-130949819D02*
X141989159Y-130949819D01*
X141989159Y-130949819D02*
X141655826Y-131330771D01*
X141655826Y-131330771D02*
X141798683Y-131330771D01*
X141798683Y-131330771D02*
X141893921Y-131378390D01*
X141893921Y-131378390D02*
X141941540Y-131426009D01*
X141941540Y-131426009D02*
X141989159Y-131521247D01*
X141989159Y-131521247D02*
X141989159Y-131759342D01*
X141989159Y-131759342D02*
X141941540Y-131854580D01*
X141941540Y-131854580D02*
X141893921Y-131902200D01*
X141893921Y-131902200D02*
X141798683Y-131949819D01*
X141798683Y-131949819D02*
X141512969Y-131949819D01*
X141512969Y-131949819D02*
X141417731Y-131902200D01*
X141417731Y-131902200D02*
X141370112Y-131854580D01*
X142274874Y-130949819D02*
X142608207Y-131949819D01*
X142608207Y-131949819D02*
X142941540Y-130949819D01*
X139989160Y-129362200D02*
X140132017Y-129409819D01*
X140132017Y-129409819D02*
X140370112Y-129409819D01*
X140370112Y-129409819D02*
X140465350Y-129362200D01*
X140465350Y-129362200D02*
X140512969Y-129314580D01*
X140512969Y-129314580D02*
X140560588Y-129219342D01*
X140560588Y-129219342D02*
X140560588Y-129124104D01*
X140560588Y-129124104D02*
X140512969Y-129028866D01*
X140512969Y-129028866D02*
X140465350Y-128981247D01*
X140465350Y-128981247D02*
X140370112Y-128933628D01*
X140370112Y-128933628D02*
X140179636Y-128886009D01*
X140179636Y-128886009D02*
X140084398Y-128838390D01*
X140084398Y-128838390D02*
X140036779Y-128790771D01*
X140036779Y-128790771D02*
X139989160Y-128695533D01*
X139989160Y-128695533D02*
X139989160Y-128600295D01*
X139989160Y-128600295D02*
X140036779Y-128505057D01*
X140036779Y-128505057D02*
X140084398Y-128457438D01*
X140084398Y-128457438D02*
X140179636Y-128409819D01*
X140179636Y-128409819D02*
X140417731Y-128409819D01*
X140417731Y-128409819D02*
X140560588Y-128457438D01*
X140989160Y-129409819D02*
X140989160Y-128409819D01*
X140989160Y-128409819D02*
X141227255Y-128409819D01*
X141227255Y-128409819D02*
X141370112Y-128457438D01*
X141370112Y-128457438D02*
X141465350Y-128552676D01*
X141465350Y-128552676D02*
X141512969Y-128647914D01*
X141512969Y-128647914D02*
X141560588Y-128838390D01*
X141560588Y-128838390D02*
X141560588Y-128981247D01*
X141560588Y-128981247D02*
X141512969Y-129171723D01*
X141512969Y-129171723D02*
X141465350Y-129266961D01*
X141465350Y-129266961D02*
X141370112Y-129362200D01*
X141370112Y-129362200D02*
X141227255Y-129409819D01*
X141227255Y-129409819D02*
X140989160Y-129409819D01*
X141941541Y-129124104D02*
X142417731Y-129124104D01*
X141846303Y-129409819D02*
X142179636Y-128409819D01*
X142179636Y-128409819D02*
X142512969Y-129409819D01*
X139989160Y-126822200D02*
X140132017Y-126869819D01*
X140132017Y-126869819D02*
X140370112Y-126869819D01*
X140370112Y-126869819D02*
X140465350Y-126822200D01*
X140465350Y-126822200D02*
X140512969Y-126774580D01*
X140512969Y-126774580D02*
X140560588Y-126679342D01*
X140560588Y-126679342D02*
X140560588Y-126584104D01*
X140560588Y-126584104D02*
X140512969Y-126488866D01*
X140512969Y-126488866D02*
X140465350Y-126441247D01*
X140465350Y-126441247D02*
X140370112Y-126393628D01*
X140370112Y-126393628D02*
X140179636Y-126346009D01*
X140179636Y-126346009D02*
X140084398Y-126298390D01*
X140084398Y-126298390D02*
X140036779Y-126250771D01*
X140036779Y-126250771D02*
X139989160Y-126155533D01*
X139989160Y-126155533D02*
X139989160Y-126060295D01*
X139989160Y-126060295D02*
X140036779Y-125965057D01*
X140036779Y-125965057D02*
X140084398Y-125917438D01*
X140084398Y-125917438D02*
X140179636Y-125869819D01*
X140179636Y-125869819D02*
X140417731Y-125869819D01*
X140417731Y-125869819D02*
X140560588Y-125917438D01*
X141560588Y-126774580D02*
X141512969Y-126822200D01*
X141512969Y-126822200D02*
X141370112Y-126869819D01*
X141370112Y-126869819D02*
X141274874Y-126869819D01*
X141274874Y-126869819D02*
X141132017Y-126822200D01*
X141132017Y-126822200D02*
X141036779Y-126726961D01*
X141036779Y-126726961D02*
X140989160Y-126631723D01*
X140989160Y-126631723D02*
X140941541Y-126441247D01*
X140941541Y-126441247D02*
X140941541Y-126298390D01*
X140941541Y-126298390D02*
X140989160Y-126107914D01*
X140989160Y-126107914D02*
X141036779Y-126012676D01*
X141036779Y-126012676D02*
X141132017Y-125917438D01*
X141132017Y-125917438D02*
X141274874Y-125869819D01*
X141274874Y-125869819D02*
X141370112Y-125869819D01*
X141370112Y-125869819D02*
X141512969Y-125917438D01*
X141512969Y-125917438D02*
X141560588Y-125965057D01*
X142465350Y-126869819D02*
X141989160Y-126869819D01*
X141989160Y-126869819D02*
X141989160Y-125869819D01*
X140560588Y-123377438D02*
X140465350Y-123329819D01*
X140465350Y-123329819D02*
X140322493Y-123329819D01*
X140322493Y-123329819D02*
X140179636Y-123377438D01*
X140179636Y-123377438D02*
X140084398Y-123472676D01*
X140084398Y-123472676D02*
X140036779Y-123567914D01*
X140036779Y-123567914D02*
X139989160Y-123758390D01*
X139989160Y-123758390D02*
X139989160Y-123901247D01*
X139989160Y-123901247D02*
X140036779Y-124091723D01*
X140036779Y-124091723D02*
X140084398Y-124186961D01*
X140084398Y-124186961D02*
X140179636Y-124282200D01*
X140179636Y-124282200D02*
X140322493Y-124329819D01*
X140322493Y-124329819D02*
X140417731Y-124329819D01*
X140417731Y-124329819D02*
X140560588Y-124282200D01*
X140560588Y-124282200D02*
X140608207Y-124234580D01*
X140608207Y-124234580D02*
X140608207Y-123901247D01*
X140608207Y-123901247D02*
X140417731Y-123901247D01*
X141036779Y-124329819D02*
X141036779Y-123329819D01*
X141036779Y-123329819D02*
X141608207Y-124329819D01*
X141608207Y-124329819D02*
X141608207Y-123329819D01*
X142084398Y-124329819D02*
X142084398Y-123329819D01*
X142084398Y-123329819D02*
X142322493Y-123329819D01*
X142322493Y-123329819D02*
X142465350Y-123377438D01*
X142465350Y-123377438D02*
X142560588Y-123472676D01*
X142560588Y-123472676D02*
X142608207Y-123567914D01*
X142608207Y-123567914D02*
X142655826Y-123758390D01*
X142655826Y-123758390D02*
X142655826Y-123901247D01*
X142655826Y-123901247D02*
X142608207Y-124091723D01*
X142608207Y-124091723D02*
X142560588Y-124186961D01*
X142560588Y-124186961D02*
X142465350Y-124282200D01*
X142465350Y-124282200D02*
X142322493Y-124329819D01*
X142322493Y-124329819D02*
X142084398Y-124329819D01*
X144446666Y-121584819D02*
X144446666Y-122299104D01*
X144446666Y-122299104D02*
X144399047Y-122441961D01*
X144399047Y-122441961D02*
X144303809Y-122537200D01*
X144303809Y-122537200D02*
X144160952Y-122584819D01*
X144160952Y-122584819D02*
X144065714Y-122584819D01*
X144827619Y-121584819D02*
X145446666Y-121584819D01*
X145446666Y-121584819D02*
X145113333Y-121965771D01*
X145113333Y-121965771D02*
X145256190Y-121965771D01*
X145256190Y-121965771D02*
X145351428Y-122013390D01*
X145351428Y-122013390D02*
X145399047Y-122061009D01*
X145399047Y-122061009D02*
X145446666Y-122156247D01*
X145446666Y-122156247D02*
X145446666Y-122394342D01*
X145446666Y-122394342D02*
X145399047Y-122489580D01*
X145399047Y-122489580D02*
X145351428Y-122537200D01*
X145351428Y-122537200D02*
X145256190Y-122584819D01*
X145256190Y-122584819D02*
X144970476Y-122584819D01*
X144970476Y-122584819D02*
X144875238Y-122537200D01*
X144875238Y-122537200D02*
X144827619Y-122489580D01*
X136396666Y-113999819D02*
X136396666Y-114714104D01*
X136396666Y-114714104D02*
X136349047Y-114856961D01*
X136349047Y-114856961D02*
X136253809Y-114952200D01*
X136253809Y-114952200D02*
X136110952Y-114999819D01*
X136110952Y-114999819D02*
X136015714Y-114999819D01*
X136825238Y-114095057D02*
X136872857Y-114047438D01*
X136872857Y-114047438D02*
X136968095Y-113999819D01*
X136968095Y-113999819D02*
X137206190Y-113999819D01*
X137206190Y-113999819D02*
X137301428Y-114047438D01*
X137301428Y-114047438D02*
X137349047Y-114095057D01*
X137349047Y-114095057D02*
X137396666Y-114190295D01*
X137396666Y-114190295D02*
X137396666Y-114285533D01*
X137396666Y-114285533D02*
X137349047Y-114428390D01*
X137349047Y-114428390D02*
X136777619Y-114999819D01*
X136777619Y-114999819D02*
X137396666Y-114999819D01*
X114396666Y-113964819D02*
X114396666Y-114679104D01*
X114396666Y-114679104D02*
X114349047Y-114821961D01*
X114349047Y-114821961D02*
X114253809Y-114917200D01*
X114253809Y-114917200D02*
X114110952Y-114964819D01*
X114110952Y-114964819D02*
X114015714Y-114964819D01*
X115396666Y-114964819D02*
X114825238Y-114964819D01*
X115110952Y-114964819D02*
X115110952Y-113964819D01*
X115110952Y-113964819D02*
X115015714Y-114107676D01*
X115015714Y-114107676D02*
X114920476Y-114202914D01*
X114920476Y-114202914D02*
X114825238Y-114250533D01*
D11*
%TO.C,J3*%
X143450000Y-123130000D02*
X144780000Y-123130000D01*
X143450000Y-124460000D02*
X143450000Y-123130000D01*
X143450000Y-125730000D02*
X143450000Y-133410000D01*
X143450000Y-125730000D02*
X146110000Y-125730000D01*
X143450000Y-133410000D02*
X146110000Y-133410000D01*
X146110000Y-125730000D02*
X146110000Y-133410000D01*
%TO.C,J2*%
X135400000Y-115545000D02*
X136730000Y-115545000D01*
X135400000Y-116875000D02*
X135400000Y-115545000D01*
X135400000Y-118145000D02*
X135400000Y-163925000D01*
X135400000Y-118145000D02*
X138060000Y-118145000D01*
X135400000Y-163925000D02*
X138060000Y-163925000D01*
X138060000Y-118145000D02*
X138060000Y-163925000D01*
%TO.C,J1*%
X113400000Y-115510000D02*
X114730000Y-115510000D01*
X113400000Y-116840000D02*
X113400000Y-115510000D01*
X113400000Y-118110000D02*
X113400000Y-163890000D01*
X113400000Y-118110000D02*
X116060000Y-118110000D01*
X113400000Y-163890000D02*
X116060000Y-163890000D01*
X116060000Y-118110000D02*
X116060000Y-163890000D01*
%TD*%
M02*
